<svg xmlns="http://www.w3.org/2000/svg" width="70" height="81" viewBox="0 0 70 81" fill="none"><g clip-path="url(#clip0_2587_10208)"><path d="M32.5312 36.2794L41.6493 20.483L37.0888 12.5848L39.3705 8.63867L50.7673 28.3812L34.81 56.022L32.5312 52.0729L46.2098 28.3812L43.9281 24.4321L34.81 40.2285L32.5312 36.2794Z" fill="white"></path><path d="M32.5311 44.1745L27.9706 36.2792L37.0886 20.4828L34.8098 16.5337L25.6918 32.3301L23.4101 28.381L37.0886 4.68933L34.8098 0.740234L18.8525 28.381L30.2494 48.1236L32.5311 44.1745Z" fill="white"></path><path d="M19.6045 80.5682V75.9199H22.4127V76.6717H20.4353V77.8418H22.2372V78.5936H20.4353V80.5623L19.6045 80.5682Z" fill="white"></path><path d="M24.168 80.5682V75.9199H24.9987V80.5565L24.168 80.5682Z" fill="white"></path><path d="M27.8653 80.5682V76.6834H26.6074V75.9199H29.9539V76.6717H28.6961V80.5565L27.8653 80.5682Z" fill="white"></path><path d="M31.5283 80.5669V75.7578L34.6876 78.844V75.9187H35.5213V80.7278L32.362 77.6417V80.5669H31.5283Z" fill="white"></path><path d="M37.4717 80.5682V75.9199H40.4233V76.6717H38.3025V77.7745H40.2916V78.5527H38.3025V79.831H40.4701V80.5828L37.4717 80.5682Z" fill="white"></path><path d="M42.5264 79.1952C42.6275 79.417 42.7934 79.6031 43.0023 79.7289C43.2111 79.8547 43.4531 79.9144 43.6965 79.9001C44.2816 79.9001 44.4834 79.6076 44.4834 79.2946C44.4878 79.199 44.4652 79.1041 44.4181 79.0208C44.371 78.9375 44.3014 78.8692 44.2172 78.8236C44.0074 78.6855 43.7788 78.5781 43.5386 78.5048C43.2001 78.3951 42.8826 78.2289 42.5995 78.0133C42.4677 77.9022 42.3637 77.7618 42.2956 77.6034C42.2276 77.4449 42.1974 77.2728 42.2076 77.1007C42.2031 76.9286 42.2379 76.7577 42.3093 76.601C42.3808 76.4444 42.4871 76.3061 42.62 76.1968C42.9078 75.9608 43.2719 75.838 43.6439 75.8516C43.9278 75.8374 44.2102 75.8997 44.4618 76.032C44.7134 76.1642 44.925 76.3615 45.0743 76.6034L44.4893 77.0071C44.3999 76.8721 44.2767 76.763 44.1319 76.6906C43.9872 76.6182 43.8259 76.5851 43.6643 76.5946C43.2987 76.5946 43.0325 76.8023 43.0325 77.086C43.0321 77.1628 43.049 77.2387 43.0819 77.3081C43.1148 77.3775 43.1629 77.4385 43.2226 77.4868C43.2987 77.5394 43.483 77.6184 43.5707 77.6652L43.8106 77.7589L44.0827 77.8642C44.4343 77.9925 44.7559 78.1917 45.0275 78.4492C45.2302 78.6782 45.3352 78.9775 45.32 79.2829C45.32 80.0991 44.7555 80.6519 43.6965 80.6519C43.3273 80.6764 42.9593 80.5883 42.6412 80.3993C42.3232 80.2102 42.0699 79.929 41.915 79.593L42.5264 79.1952Z" fill="white"></path><path d="M47.2364 79.195C47.3372 79.4171 47.503 79.6034 47.7119 79.7293C47.9208 79.8552 48.163 79.9147 48.4065 79.9C48.9915 79.9 49.1904 79.6075 49.1904 79.2945C49.1948 79.1989 49.1722 79.104 49.1251 79.0207C49.078 78.9374 49.0084 78.869 48.9242 78.8235C48.7144 78.6854 48.4859 78.578 48.2456 78.5046C47.9074 78.3943 47.59 78.2282 47.3066 78.0132C47.1748 77.902 47.0707 77.7617 47.0027 77.6032C46.9346 77.4448 46.9045 77.2727 46.9146 77.1005C46.9101 76.9284 46.9449 76.7575 47.0164 76.6009C47.0878 76.4443 47.1941 76.306 47.3271 76.1966C47.6163 75.9611 47.9811 75.8385 48.3538 75.8514C48.6372 75.8378 48.9191 75.9004 49.1701 76.0326C49.4212 76.1648 49.6322 76.3618 49.7814 76.6032L49.1963 77.0069C49.1072 76.8718 48.984 76.7625 48.8392 76.6901C48.6943 76.6176 48.533 76.5847 48.3714 76.5945C48.0057 76.5945 47.7395 76.8021 47.7395 77.0859C47.739 77.163 47.7562 77.2392 47.7897 77.3086C47.8231 77.3781 47.872 77.439 47.9326 77.4867C48.0057 77.5393 48.1929 77.6183 48.2778 77.6651L48.5176 77.7587L48.7897 77.864C49.1413 77.9924 49.4629 78.1915 49.7345 78.4491C49.9373 78.6781 50.0423 78.9773 50.0271 79.2828C50.0271 80.0989 49.4625 80.6518 48.4036 80.6518C48.0343 80.6763 47.6664 80.5882 47.3483 80.3991C47.0302 80.21 46.777 79.9289 46.6221 79.5928L47.2364 79.195Z" fill="white"></path><path d="M0.347656 71.7329H1.90682V68.0442H5.2855V66.6342H1.90682V64.452H5.60728V63.0449H0.347656V71.7329Z" fill="white"></path><path d="M12.8384 62.8956C12.2349 62.8842 11.6354 62.9955 11.0762 63.2228C10.517 63.45 10.0099 63.7886 9.58553 64.2178C9.16294 64.6374 8.82754 65.1364 8.59866 65.6862C8.36979 66.2359 8.25195 66.8255 8.25195 67.421C8.25195 68.0165 8.36979 68.6061 8.59866 69.1558C8.82754 69.7056 9.16294 70.2046 9.58553 70.6242C10.0128 71.048 10.521 71.3814 11.0798 71.6045C11.6387 71.8277 12.2368 71.936 12.8384 71.923C13.4422 71.9358 14.0424 71.8274 14.6037 71.6044C15.1649 71.3813 15.6757 71.048 16.1059 70.6242C16.5307 70.2058 16.8679 69.7072 17.0981 69.1573C17.3284 68.6074 17.4469 68.0172 17.4469 67.421C17.4469 66.8249 17.3284 66.2346 17.0981 65.6847C16.8679 65.1348 16.5307 64.6362 16.1059 64.2178C15.6799 63.7868 15.1703 63.4472 14.6085 63.2198C14.0467 62.9925 13.4444 62.8822 12.8384 62.8956ZM15.009 69.6237C14.4263 70.1905 13.6455 70.5077 12.8326 70.5077C12.0197 70.5077 11.2389 70.1905 10.6562 69.6237C10.367 69.3349 10.1399 68.99 9.98899 68.6102C9.83806 68.2304 9.76647 67.8237 9.7786 67.4152C9.76891 67.0074 9.84165 66.6018 9.99244 66.2228C10.1432 65.8438 10.369 65.4992 10.6562 65.2095C10.9383 64.9173 11.2778 64.6867 11.6533 64.5322C12.0289 64.3776 12.4324 64.3025 12.8384 64.3115C13.2426 64.303 13.6442 64.3785 14.0178 64.533C14.3914 64.6876 14.7289 64.918 15.009 65.2095C15.5757 65.8046 15.8918 66.5948 15.8918 67.4166C15.8918 68.2384 15.5757 69.0287 15.009 69.6237Z" fill="white"></path><path d="M26.8275 65.8004C26.8366 65.4339 26.7678 65.0697 26.6256 64.7318C26.4834 64.3939 26.271 64.0901 26.0026 63.8404C25.7412 63.5808 25.4299 63.3767 25.0876 63.2405C24.7452 63.1043 24.3789 63.0387 24.0105 63.0477H20.6318V71.7357H22.1881V68.6408H23.7502L25.6077 71.7328H27.3629L25.242 68.2664C25.721 68.0588 26.1275 67.7136 26.4098 67.2745C26.6921 66.8354 26.8375 66.3223 26.8275 65.8004ZM23.8467 67.2454H22.1881V64.4518H23.9725C24.15 64.4508 24.3258 64.486 24.4892 64.5554C24.6526 64.6248 24.8001 64.7269 24.9225 64.8554C25.045 64.9839 25.1399 65.1361 25.2014 65.3026C25.2629 65.4692 25.2897 65.6465 25.2801 65.8238C25.2885 66.0137 25.2571 66.2033 25.1879 66.3804C25.1187 66.5575 25.0132 66.7181 24.8782 66.852C24.7432 66.9859 24.5817 67.0901 24.4041 67.1578C24.2264 67.2256 24.0366 67.2554 23.8467 67.2454Z" fill="white"></path><path d="M30.3057 62.7578V71.7325H31.8385V66.8093L34.7433 70.3489L37.6481 66.8093V71.7325H39.1809V62.7578L34.7433 68.1286L30.3057 62.7578Z" fill="white"></path><path d="M48.2661 68.2441C48.2661 69.7389 47.5202 70.4614 46.3091 70.4614C45.0981 70.4614 44.3404 69.7389 44.3404 68.2441V63.0488H42.7812V68.4079C42.7812 69.5195 43.106 70.3766 43.7671 70.9763C44.4852 71.5574 45.3809 71.8745 46.3047 71.8745C47.2285 71.8745 48.1243 71.5574 48.8424 70.9763C49.5006 70.3766 49.8253 69.5137 49.8253 68.4079V63.0488H48.2661V68.2441Z" fill="white"></path><path d="M54.9859 63.0449H53.4297V71.7329H58.4407V70.3259H54.9859V63.0449Z" fill="white"></path><path d="M64.9847 62.6211L60.6846 71.7333H62.3286L64.973 65.874L67.6145 71.7333H69.2731L64.9847 62.6211Z" fill="white"></path></g><defs><clipPath id="clip0_2587_10208"><rect width="68.925" height="80" fill="white" transform="translate(0.347656 0.740234)"></rect></clipPath></defs></svg>